# xmcd
#
# Track frame offsets:
#	150
#	20615
#	40260
#	58432
#	80860
#	108367
#	129747
#	145907
#	164322
#	187815
#
# Disc length: 2833 seconds
#
# Revision: 364970240
# Processed by: cddbd v1.5.2PL0 Copyright (c) Steve Scherf et al.
# Submitted via: EZCDAudioConverter 8.0.2.1
#
DISCID=8e0b0f0a
DTITLE=Lâm Thúy Vân - Đã Qua Thời Mong Chờ
DYEAR=1998
DGENRE=Contemporary Blues
TTITLE0=Đã Qua Thời Mong Chờ
TTITLE1=Lời tình băng giá
TTITLE2=Tình trong mắt em
TTITLE3=Bài hát ru cho anh
TTITLE4=Đừng xa em đêm nay
TTITLE5=Một giấc mơ buồn
TTITLE6=Chờ mong anh
TTITLE7=Một nửa đời em
TTITLE8=Tình lỡ trăm năm
TTITLE9=Trọn ngày nhớ anh
EXTD=
EXTT0=
EXTT1=
EXTT2=
EXTT3=
EXTT4=
EXTT5=
EXTT6=
EXTT7=
EXTT8=
EXTT9=
PLAYORDER=
